<svg xmlns="http://www.w3.org/2000/svg" viewBox="0 0 418.27 93.38"><title>klarna-logo</title><path d="M453.23,278.46a11.91,11.91,0,1,0,11.91,11.91,11.9,11.9,0,0,0-11.91-11.91" transform="translate(-46.87 -209.31)"/><path d="M414.12,241.62v-4.05h19v63.37h-19v-4a33.44,33.44,0,1,1,0-55.26Zm-17.25,43.93c9.49,0,17.19-7.3,17.19-16.3s-7.7-16.3-17.19-16.3-17.19,7.3-17.19,16.3S387.37,285.56,396.86,285.56Z" transform="translate(-46.87 -209.31)"/><path d="M328.16,235.86c-7.58,0-14.75,2.35-19.55,8.84v-7.14H289.73v63.36h19.12v-33.3c0-9.64,6.46-14.35,14.24-14.35,8.34,0,13.13,5,13.13,14.22v33.43h18.95v-40.3c0-14.75-11.72-24.77-27-24.77" transform="translate(-46.87 -209.31)"/><path d="M262.29,245.82v-8.25H242.87v63.36h19.47V271.35c0-10,10.82-15.35,18.32-15.35h.23V237.57c-7.7,0-14.79,3.3-18.59,8.25" transform="translate(-46.87 -209.31)"/><path d="M214,241.62v-4.05h19v63.37H214v-4a33.44,33.44,0,1,1,0-55.26Zm-17.25,43.93c9.49,0,17.19-7.3,17.19-16.3s-7.7-16.3-17.19-16.3-17.19,7.3-17.19,16.3S187.22,285.56,196.72,285.56Z" transform="translate(-46.87 -209.31)"/><path d="M134.09,300.93H154v-91.6H134.09Z" transform="translate(-46.87 -209.31)"/><path d="M120.41,209.31H99.83a52.63,52.63,0,0,1-21.27,42.47l-8.15,6.11L102,301h26L98.9,261.33a72.9,72.9,0,0,0,21.51-52" transform="translate(-46.87 -209.31)"/><path d="M46.87,301h21V209.31h-21Z" transform="translate(-46.87 -209.31)"/></svg>