<svg id="Layer_1" data-name="Layer 1" xmlns="http://www.w3.org/2000/svg" width="229.5" height="91.8" viewBox="0 0 229.5 91.8"><title>eBay logo - Brandlogos.net</title><path d="M439.07,400.91c0,3.42.1,6.79.39,9.82H428.68a64.81,64.81,0,0,1-.39-7.39c-5.83,7.26-12.76,9.34-22.38,9.34-14.27,0-21.91-7.64-21.91-16.47,0-12.79,10.39-17.3,28.43-17.72,4.93-.11,10.47-.13,15.05-.13v-1.25c0-8.56-5.42-12.09-14.82-12.09-7,0-12.12,2.93-12.65,8H387.83c1.29-12.59,14.36-15.78,25.85-15.78,13.77,0,25.39,5,25.39,19.7Zm-25.85-14.55c-10.51.35-17,2.27-17,9.28,0,4.54,3.57,9.46,12.64,9.46,12.16,0,18.65-6.71,18.65-17.72v-1.21C423.21,386.17,418,386.21,413.22,386.37Z" transform="translate(-269.25 -338.1)" style="fill:#f6af02"/><path d="M280.86,387.93c.61,10.65,7.75,17,17.56,17,6.79,0,12.84-2.85,14.86-9.06H325c-2.29,12.59-15.27,16.86-26.45,16.86-20.32,0-29.33-11.53-29.33-27.08,0-17.12,9.32-28.39,29.52-28.39,16.08,0,27.86,8.67,27.86,27.58v3.12Zm33.79-7.8c-.44-11-8.14-15.09-16.36-15.09-8.87,0-15.95,4.62-17.19,15.09h33.55Z" transform="translate(-269.25 -338.1)" style="fill:#e53238"/><path d="M327,338.1h11.73V367c5.75-6.72,13.67-8.67,21.47-8.67,13.08,0,27.6,8.65,27.6,27.33,0,15.64-11.55,27-27.82,27-8.51,0-16.53-3-21.47-8.93a61.1,61.1,0,0,1-.4,7H326.63c.2-3.65.4-8.2.4-11.88Zm30.1,66.72c10.91,0,18.37-7.7,18.37-19.31S368,366.2,357.13,366.2s-18.37,7.7-18.37,19.31S346.28,404.82,357.13,404.82Z" transform="translate(-269.25 -338.1)" style="fill:#0064d2"/><path d="M498.75,359.14,463.16,429.9H450.28l10.23-19.65-26.78-51.11h13.46l19.71,39.93,19.65-39.93Z" transform="translate(-269.25 -338.1)" style="fill:#86b817"/></svg>