<svg xmlns="http://www.w3.org/2000/svg" viewBox="0 0 248.97 118.12"><defs><style>.a{fill:#f1641e;}</style></defs><title>Etsy logo - Brandlogos.net</title><path class="a" d="M414.21,462v33.48s11.8,0,18.11-.48c5-.87,5.88-1.35,6.79-6.31l1.83-7.27h5.4l-.91,15.9.48,16.29h-5.45l-1.35-6.36c-1.35-4.53-3.18-5.45-6.79-5.88-4.53-.48-18.11-.48-18.11-.48V529c0,5.4,2.74,7.71,9.06,7.71h19c5.88,0,11.75-.48,15.42-9.06l4.92-10.88h4.57c-.48,2.26-2.74,22.2-3.18,26.69,0,0-17.2-.43-24.43-.43H407l-19.46.43V538.5l6.31-1.39c4.57-.91,5.92-2.26,5.92-5.88,0,0,.48-12.23.48-32.62s-.48-32.57-.48-32.57c0-4.05-1.35-5-5.92-5.88l-6.31-1.34v-5l19,.39h36.23c7.23,0,19.42-1.3,19.42-1.3s-.43,7.66-.91,25.78h-5l-1.83-6.36c-1.78-8.14-4.49-12.19-9.49-12.19H416.52C414.21,460.17,414.21,460.6,414.21,462Zm73.32,3.57H493v19l18.59-.91-.91,8.62-18.11-1.39v33.53c0,9.49,3.18,13.15,8.62,13.15,4.92,0,8.58-2.74,9.93-5l2.7,3.18c-2.7,6.31-10.36,9.49-17.63,9.49-9,0-16.33-5.4-16.33-15.81V491.38H469v-4.53C478.08,485.94,484.83,480.5,487.53,465.57Zm39,58.39,3.61,8.62c1.35,3.61,4.53,7.27,11.75,7.27,7.71,0,10.88-4.09,10.88-9.06,0-15.42-30.35-10.88-30.35-31.7,0-11.75,9.49-17.24,21.72-17.24,5.45,0,13.59.91,17.68,2.74a82.55,82.55,0,0,0-1.39,14.94l-4.49.43-3.18-9.06c-.91-2.22-4.57-4.05-9.06-4.05-5.45,0-10.88,2.26-10.88,8.14,0,14,31.26,10.88,31.26,31.7,0,11.8-10.41,18.11-23.12,18.11-9.49,0-19-3.66-19-3.66.91-5.4.48-11.27,0-17.2Zm35.31,43.46a169.38,169.38,0,0,0,3.18-17.2l5-.43,1.83,9.49c.43,2.26,1.78,4.09,5.4,4.09,5.88,0,13.59-3.61,20.86-16.29-3.22-7.71-12.71-32.57-21.33-51.6-2.26-5-2.7-5.45-5.84-6.36l-2.31-.87v-4.57l13.63.48,16.72-.91v4.53l-4.09.91c-3.18.43-4.49,2.22-4.49,4.05a3.56,3.56,0,0,0,.43,1.83c.87,2.74,8.14,23.08,13.59,36.66,4.49-9.49,13.11-30.78,14.46-34.4.48-1.83.91-2.26.91-3.61,0-2.31-1.35-3.66-4.49-4.53l-3.22-.92v-4.53l12.71.43,11.75-.43v4.53l-2.26,1.78c-4.53,1.83-5,2.26-6.79,5.92l-19.9,46.59c-11.8,26.74-24,29-32.62,29A23.37,23.37,0,0,1,561.81,567.41Z" transform="translate(-387.52 -452.94)"/></svg>