<svg width="163" height="16" viewBox="0 0 163 16" fill="none" xmlns="http://www.w3.org/2000/svg">
<path d="M0 0.43001C0 0.21001 0.18 0.0100098 0.42 0.0100098H9.47C9.71 0.0100098 9.89 0.21001 9.89 0.43001V2.25001C9.89 2.47001 9.71 2.67001 9.47 2.67001H2.89V6.84001H8.38C8.6 6.84001 8.8 7.04001 8.8 7.26001V9.08001C8.8 9.30001 8.6 9.50001 8.38 9.50001H2.89V15.56C2.89 15.78 2.69 15.98 2.47 15.98H0.42C0.18 15.98 0 15.78 0 15.56V0.43001Z" fill="#333333"/>
<path d="M13.9401 15.4L20.9401 0.26001C21.0101 0.13001 21.1201 0.0100098 21.3201 0.0100098H21.5501C21.7801 0.0100098 21.8701 0.12001 21.9301 0.26001L28.8701 15.4C29.0101 15.69 28.8301 15.99 28.4901 15.99H26.5301C26.1901 15.99 26.0301 15.85 25.8801 15.54L24.7801 13.11H18.0401L16.9401 15.54C16.8501 15.77 16.6501 15.99 16.2901 15.99H14.3301C13.9901 15.99 13.8101 15.7 13.9501 15.4H13.9401ZM23.6701 10.61L21.4201 5.66001H21.3501L19.1401 10.61H23.6701Z" fill="#333333"/>
<path d="M34.2201 13.59L35.0201 12.21C35.2001 11.9 35.5801 11.9 35.7801 12.05C35.8901 12.12 37.6901 13.43 39.1401 13.43C40.3001 13.43 41.1601 12.68 41.1601 11.72C41.1601 10.59 40.2101 9.81001 38.3401 9.06001C36.2501 8.22001 34.1601 6.88001 34.1601 4.27001C34.1601 2.29001 35.6301 0.0100098 39.1601 0.0100098C41.4301 0.0100098 43.1601 1.16001 43.6001 1.50001C43.8201 1.63001 43.8901 2.01001 43.7301 2.23001L42.8901 3.49001C42.7101 3.76001 42.3801 3.93001 42.1101 3.76001C41.9301 3.65001 40.2401 2.54001 39.0201 2.54001C37.8001 2.54001 37.0601 3.38001 37.0601 4.09001C37.0601 5.13001 37.8801 5.84001 39.6801 6.58001C41.8401 7.45001 44.3201 8.73001 44.3201 11.6C44.3201 13.89 42.3401 15.99 39.2101 15.99C36.4101 15.99 34.7701 14.68 34.3201 14.26C34.1201 14.06 34.0101 13.95 34.2101 13.59H34.2201Z" fill="#333333"/>
<path d="M51.52 0.43001C51.52 0.21001 51.72 0.0100098 51.94 0.0100098H54.01C54.25 0.0100098 54.43 0.21001 54.43 0.43001V6.54001H61.67V0.43001C61.67 0.21001 61.85 0.0100098 62.09 0.0100098H64.13C64.35 0.0100098 64.55 0.21001 64.55 0.43001V15.57C64.55 15.79 64.35 15.99 64.13 15.99H62.09C61.85 15.99 61.67 15.79 61.67 15.57V9.22001H54.42V15.57C54.42 15.79 54.24 15.99 54 15.99H51.93C51.71 15.99 51.51 15.79 51.51 15.57V0.43001H51.52Z" fill="#333333"/>
<path d="M72.9299 0.43001C72.9299 0.21001 73.1299 0.0100098 73.3499 0.0100098H75.4199C75.6399 0.0100098 75.8399 0.21001 75.8399 0.43001V15.57C75.8399 15.79 75.6399 15.99 75.4199 15.99H73.3499C73.1299 15.99 72.9299 15.79 72.9299 15.57V0.43001Z" fill="#333333"/>
<path d="M91.0701 0.0100098C95.5101 0.0100098 99.0701 3.58001 99.0701 8.02001C99.0701 12.46 95.5101 15.99 91.0701 15.99C86.6301 15.99 83.0901 12.46 83.0901 8.02001C83.0901 3.58001 86.6201 0.0100098 91.0701 0.0100098ZM91.0701 13.1C93.8701 13.1 96.1801 10.81 96.1801 8.02001C96.1801 5.23001 93.8701 2.89001 91.0701 2.89001C88.2701 2.89001 85.9801 5.22001 85.9801 8.02001C85.9801 10.82 88.2701 13.1 91.0701 13.1Z" fill="#333333"/>
<path d="M106.34 0.41001C106.34 0.19001 106.54 0.0100098 106.76 0.0100098H107.32L116.56 9.82001H116.58V0.43001C116.58 0.21001 116.76 0.0100098 117 0.0100098H119.04C119.26 0.0100098 119.46 0.21001 119.46 0.43001V15.59C119.46 15.81 119.26 15.99 119.04 15.99H118.51L109.22 5.80001H109.2V15.57C109.2 15.79 109.01 15.99 108.77 15.99H106.75C106.53 15.99 106.33 15.79 106.33 15.57V0.41001H106.34Z" fill="#333333"/>
<path d="M134.75 0.01C136.75 0.01 138.66 0.79 140.17 2.07C140.35 2.25 140.37 2.51 140.19 2.69L138.81 4.13C138.63 4.31 138.43 4.31 138.23 4.13C137.27 3.29 136.1 2.84 134.87 2.84C132.09 2.84 129.89 5.21 129.89 7.99C129.89 10.77 132.09 13.07 134.89 13.07C136.13 13.07 137.09 12.69 137.53 12.52V10.63H135.75C135.51 10.63 135.33 10.45 135.33 10.23V8.48C135.33 8.24 135.51 8.06 135.75 8.06H140.02C140.24 8.06 140.42 8.26 140.42 8.48V14.16C140.42 14.34 140.33 14.45 140.24 14.51C140.24 14.51 137.95 15.95 134.73 15.95C130.31 15.95 126.75 12.44 126.75 8.01C126.75 3.58 130.31 0 134.73 0L134.75 0.01Z" fill="#333333"/>
<path d="M154.93 0.0100098C159.37 0.0100098 162.93 3.58001 162.93 8.02001C162.93 12.46 159.37 15.99 154.93 15.99C150.49 15.99 146.95 12.46 146.95 8.02001C146.95 3.58001 150.48 0.0100098 154.93 0.0100098ZM154.93 13.1C157.73 13.1 160.04 10.81 160.04 8.02001C160.04 5.23001 157.73 2.89001 154.93 2.89001C152.13 2.89001 149.84 5.22001 149.84 8.02001C149.84 10.82 152.13 13.1 154.93 13.1Z" fill="#333333"/>
</svg>
