<svg id="Layer_1" data-name="Layer 1" xmlns="http://www.w3.org/2000/svg" viewBox="0 0 292.08 83.43"><title>Shopify logo - Brandlogos.net</title><path d="M300.7,358.14a.79.79,0,0,0-.71-.66l-6.56-.49-4.83-4.79a2,2,0,0,0-1.77-.23l-2.43.75c-1.45-4.18-4-8-8.53-8h-.38a5.48,5.48,0,0,0-4.24-2.43c-10.51,0-15.53,13.13-17.1,19.81l-7.35,2.28c-2.28.72-2.35.79-2.65,2.93C243.92,368.93,238,415,238,415l46.46,8.7,25.17-5.45S300.76,358.55,300.7,358.14Zm-18.87-4.62-3.93,1.22c0-.28,0-.55,0-.85a19.28,19.28,0,0,0-.94-6.35C279.29,347.83,280.84,350.48,281.83,353.52Zm-7.75-5.46a19.5,19.5,0,0,1,1.07,7.08c0,.16,0,.31,0,.46L267,358.1C268.59,352.07,271.52,349.16,274.08,348.06Zm-3.12-3a2.37,2.37,0,0,1,1.35.45c-3.37,1.58-7,5.58-8.5,13.54l-6.42,2C259.18,355,263.42,345.1,271,345.1Z" transform="translate(-237.96 -342.28)" style="fill:#95bf47"/><path id="_Path_" data-name="&lt;Path&gt;" d="M300,357.48l-6.56-.49-4.83-4.79a1.19,1.19,0,0,0-.67-.31l-3.51,71.86,25.17-5.45s-8.84-59.75-8.89-60.16A.79.79,0,0,0,300,357.48Z" transform="translate(-237.96 -342.28)" style="fill:#5e8e3e"/><path id="_Path_2" data-name="&lt;Path&gt;" d="M275.88,371.39l-3.1,9.23a14.28,14.28,0,0,0-6.05-1.45c-4.89,0-5.13,3.07-5.13,3.84,0,4.22,11,5.83,11,15.71,0,7.77-4.93,12.78-11.58,12.78a16.1,16.1,0,0,1-12.05-5l2.14-7.06s4.19,3.6,7.73,3.6a3.12,3.12,0,0,0,3.25-3.15c0-5.5-9-5.75-9-14.79,0-7.61,5.46-15,16.48-15A13.56,13.56,0,0,1,275.88,371.39Z" transform="translate(-237.96 -342.28)" style="fill:#fff"/><path id="s" d="M338.94,388.7c-2.51-1.36-3.8-2.51-3.8-4.09,0-2,1.79-3.3,4.59-3.3a16.4,16.4,0,0,1,6.17,1.36l2.3-7s-2.11-1.65-8.32-1.65c-8.64,0-14.63,4.95-14.63,11.91,0,3.94,2.8,7,6.53,9.11,3,1.72,4.09,2.94,4.09,4.73s-1.51,3.37-4.3,3.37a19.34,19.34,0,0,1-8.11-2.15L321,408a18.67,18.67,0,0,0,9.76,2.44c8.9,0,15.28-4.38,15.28-12.27C346,393.94,342.82,390.93,338.94,388.7Z" transform="translate(-237.96 -342.28)"/><path id="h" d="M374.38,373.93a13.39,13.39,0,0,0-10.47,5.24l-.14-.07,3.8-19.87h-9.9l-9.61,50.57H358l3.3-17.29c1.29-6.53,4.66-10.54,7.82-10.54,2.22,0,3.08,1.51,3.08,3.66a22.62,22.62,0,0,1-.43,4.38L368,409.79h9.9l3.87-20.44a37,37,0,0,0,.72-6.46C382.48,377.3,379.54,373.93,374.38,373.93Z" transform="translate(-237.96 -342.28)"/><path id="o" d="M404.87,373.93c-11.91,0-19.8,10.76-19.8,22.74,0,7.68,4.73,13.84,13.63,13.84,11.69,0,19.58-10.47,19.58-22.74C418.28,380.67,414.12,373.93,404.87,373.93Zm-4.88,29c-3.37,0-4.81-2.87-4.81-6.46,0-5.67,2.94-14.92,8.32-14.92,3.51,0,4.66,3,4.66,6C408.16,393.58,405.22,402.91,400,402.91Z" transform="translate(-237.96 -342.28)"/><path id="p" d="M443.6,373.93c-6.68,0-10.47,5.88-10.47,5.88H433l.57-5.31h-8.75c-.43,3.59-1.22,9-2,13.13l-6.89,36.22h9.9l2.73-14.63h.22a11.54,11.54,0,0,0,5.81,1.29c11.62,0,19.22-11.91,19.22-24C453.79,379.88,450.85,373.93,443.6,373.93ZM434.13,403a6.28,6.28,0,0,1-4.09-1.43l1.65-9.25c1.15-6.17,4.38-10.26,7.82-10.26,3,0,3.95,2.8,3.95,5.45C443.46,393.94,439.66,403,434.13,403Z" transform="translate(-237.96 -342.28)"/><path id="dot" d="M467.92,359.72a5.65,5.65,0,0,0-5.67,5.74c0,2.94,1.86,4.95,4.66,4.95h.14a5.59,5.59,0,0,0,5.81-5.74A4.71,4.71,0,0,0,467.92,359.72Z" transform="translate(-237.96 -342.28)"/><polygon id="i" points="216.11 67.51 226.01 67.51 232.76 32.43 222.79 32.43 216.11 67.51"/><path id="f" d="M495.89,374.64H489l.36-1.65c.57-3.37,2.58-6.38,5.88-6.38a10.32,10.32,0,0,1,3.16.5l1.94-7.75a13.06,13.06,0,0,0-5.38-.86,14.7,14.7,0,0,0-9.68,3.3c-3.37,2.87-4.95,7-5.74,11.19l-.29,1.65h-4.59l-1.43,7.46h4.59l-5.24,27.69h9.9l5.24-27.69h6.81Z" transform="translate(-237.96 -342.28)"/><path id="y" d="M519.71,374.72s-6.19,15.59-9,24.1h-.14c-.19-2.74-2.44-24.1-2.44-24.1h-10.4l6,32.21a2.11,2.11,0,0,1-.22,1.65,16.94,16.94,0,0,1-5.38,6,21.41,21.41,0,0,1-5.59,2.8l2.73,8.39a22.61,22.61,0,0,0,9.68-5.38c4.52-4.23,8.68-10.76,13-19.65l12.12-26Z" transform="translate(-237.96 -342.28)"/></svg>