<?xml version="1.0" encoding="UTF-8"?><svg id="Layer_1" xmlns="http://www.w3.org/2000/svg" viewBox="0 0 94.68 24.54"><defs><style>.cls-1{fill-rule:evenodd;}.cls-1,.cls-2{fill:#873eff;}</style></defs><path class="cls-2" d="M12.08,24.54c2.76,0,4.98-1.37,6.66-4.51l3.72-6.96v5.9c0,3.48,2.25,5.56,5.73,5.56,2.73,0,4.74-1.19,6.69-4.51l8.57-14.47c1.88-3.17.55-5.56-3.58-5.56-2.22,0-3.65.72-4.95,3.14l-5.9,11.09V4.37c0-2.94-1.4-4.37-3.99-4.37-2.05,0-3.69.89-4.95,3.34l-5.56,10.89V4.47c0-3.14-1.3-4.47-4.44-4.47H3.65C1.23,0,0,1.13,0,3.21s1.3,3.28,3.65,3.28h2.63v12.46c0,3.52,2.36,5.6,5.8,5.6Z"/><path class="cls-1" d="M55.98,0c-7,0-12.36,5.22-12.36,12.29s5.39,12.25,12.36,12.25,12.29-5.22,12.32-12.25c0-7.07-5.36-12.29-12.32-12.29ZM55.98,17c-2.63,0-4.44-1.98-4.44-4.71s1.81-4.74,4.44-4.74,4.44,2.01,4.44,4.74-1.77,4.71-4.44,4.71Z"/><path class="cls-1" d="M70.04,12.29c0-7.07,5.36-12.29,12.32-12.29s12.32,5.26,12.32,12.29-5.36,12.25-12.32,12.25-12.32-5.19-12.32-12.25ZM77.96,12.29c0,2.73,1.74,4.71,4.4,4.71s4.44-1.98,4.44-4.71-1.81-4.74-4.44-4.74-4.4,2.01-4.4,4.74Z"/></svg>