<?xml version="1.0" encoding="UTF-8"?>
<svg xmlns="http://www.w3.org/2000/svg" xmlns:xlink="http://www.w3.org/1999/xlink" width="612pt" height="792pt" viewBox="0 0 612 792" version="1.1">
<g id="surface1">
<path style=" stroke:none;fill-rule:evenodd;fill:rgb(97.264099%,59.568787%,11.376953%);fill-opacity:1;" d="M 337.089844 427.261719 C 328.070313 433.914063 315 437.453125 303.742188 437.453125 C 287.96875 437.453125 273.761719 431.621094 263.011719 421.914063 C 262.164063 421.152344 262.917969 420.113281 263.933594 420.703125 C 275.53125 427.453125 289.875 431.515625 304.691406 431.515625 C 314.683594 431.515625 325.671875 429.441406 335.777344 425.15625 C 337.304688 424.507813 338.582031 426.160156 337.089844 427.261719 "/>
<path style=" stroke:none;fill-rule:evenodd;fill:rgb(97.264099%,59.568787%,11.376953%);fill-opacity:1;" d="M 340.839844 422.976563 C 339.6875 421.503906 333.21875 422.277344 330.3125 422.628906 C 329.429688 422.730469 329.292969 421.964844 330.089844 421.40625 C 335.25 417.78125 343.707031 418.828125 344.6875 420.039063 C 345.679688 421.265625 344.429688 429.746094 339.59375 433.789063 C 338.847656 434.410156 338.140625 434.082031 338.472656 433.257813 C 339.558594 430.539063 341.996094 424.453125 340.839844 422.976563 "/>
<path style=" stroke:none;fill-rule:evenodd;fill:rgb(0%,0%,0%);fill-opacity:1;" d="M 330.515625 395.796875 L 330.515625 392.273438 C 330.519531 391.738281 330.921875 391.378906 331.410156 391.382813 L 347.195313 391.378906 C 347.703125 391.378906 348.105469 391.746094 348.105469 392.269531 L 348.105469 395.289063 C 348.101563 395.796875 347.675781 396.457031 346.917969 397.507813 L 338.742188 409.183594 C 341.777344 409.113281 344.988281 409.566406 347.746094 411.117188 C 348.367188 411.46875 348.535156 411.984375 348.585938 412.492188 L 348.585938 416.253906 C 348.585938 416.769531 348.015625 417.367188 347.421875 417.058594 C 342.5625 414.511719 336.113281 414.234375 330.738281 417.089844 C 330.191406 417.378906 329.613281 416.789063 329.613281 416.269531 L 329.613281 412.699219 C 329.613281 412.125 329.628906 411.148438 330.203125 410.277344 L 339.679688 396.683594 L 331.429688 396.683594 C 330.925781 396.683594 330.519531 396.324219 330.515625 395.796875 "/>
<path style=" stroke:none;fill-rule:evenodd;fill:rgb(0%,0%,0%);fill-opacity:1;" d="M 272.925781 417.796875 L 268.121094 417.796875 C 267.664063 417.769531 267.300781 417.425781 267.261719 416.984375 L 267.269531 392.332031 C 267.269531 391.839844 267.683594 391.445313 268.195313 391.445313 L 272.667969 391.445313 C 273.136719 391.46875 273.511719 391.824219 273.539063 392.273438 L 273.539063 395.492188 L 273.628906 395.492188 C 274.796875 392.378906 276.992188 390.925781 279.953125 390.925781 C 282.953125 390.925781 284.839844 392.378906 286.183594 395.492188 C 287.351563 392.378906 289.996094 390.925781 292.820313 390.925781 C 294.839844 390.925781 297.035156 391.757813 298.378906 393.625 C 299.902344 395.699219 299.589844 398.707031 299.589844 401.351563 L 299.585938 416.910156 C 299.585938 417.402344 299.171875 417.796875 298.660156 417.796875 L 293.863281 417.796875 C 293.378906 417.765625 293 417.382813 293 416.910156 L 293 403.84375 C 293 402.808594 293.089844 400.210938 292.863281 399.226563 C 292.507813 397.566406 291.429688 397.097656 290.039063 397.097656 C 288.875 397.097656 287.664063 397.878906 287.171875 399.121094 C 286.675781 400.367188 286.722656 402.441406 286.722656 403.84375 L 286.722656 416.910156 C 286.722656 417.402344 286.308594 417.796875 285.796875 417.796875 L 280.996094 417.796875 C 280.515625 417.765625 280.136719 417.382813 280.136719 416.910156 L 280.132813 403.84375 C 280.132813 401.09375 280.578125 397.046875 277.171875 397.046875 C 273.71875 397.046875 273.855469 400.988281 273.855469 403.84375 L 273.851563 416.910156 C 273.851563 417.402344 273.4375 417.796875 272.925781 417.796875 "/>
<path style=" stroke:none;fill-rule:evenodd;fill:rgb(0%,0%,0%);fill-opacity:1;" d="M 361.742188 395.960938 C 358.199219 395.960938 357.976563 400.78125 357.976563 403.789063 C 357.976563 406.800781 357.933594 413.230469 361.699219 413.230469 C 365.421875 413.230469 365.601563 408.046875 365.601563 404.882813 C 365.601563 402.808594 365.511719 400.316406 364.882813 398.34375 C 364.34375 396.632813 363.265625 395.960938 361.742188 395.960938 Z M 361.699219 390.925781 C 368.828125 390.925781 372.683594 397.046875 372.683594 404.828125 C 372.683594 412.351563 368.425781 418.316406 361.699219 418.316406 C 354.703125 418.316406 350.894531 412.195313 350.894531 404.570313 C 350.894531 396.890625 354.75 390.925781 361.699219 390.925781 "/>
<path style=" stroke:none;fill-rule:evenodd;fill:rgb(0%,0%,0%);fill-opacity:1;" d="M 381.929688 417.796875 L 377.144531 417.796875 C 376.660156 417.765625 376.28125 417.382813 376.28125 416.910156 L 376.273438 392.25 C 376.3125 391.800781 376.710938 391.445313 377.195313 391.445313 L 381.652344 391.445313 C 382.070313 391.46875 382.414063 391.753906 382.503906 392.136719 L 382.503906 395.90625 L 382.59375 395.90625 C 383.941406 392.53125 385.820313 390.925781 389.140625 390.925781 C 391.292969 390.925781 393.398438 391.703125 394.746094 393.832031 C 396 395.800781 396 399.121094 396 401.507813 L 396 417.019531 C 395.945313 417.457031 395.554688 417.796875 395.078125 417.796875 L 390.265625 417.796875 C 389.820313 417.769531 389.460938 417.441406 389.410156 417.019531 L 389.410156 403.636719 C 389.410156 400.9375 389.722656 396.996094 386.40625 396.996094 C 385.238281 396.996094 384.164063 397.773438 383.625 398.964844 C 382.953125 400.472656 382.863281 401.976563 382.863281 403.636719 L 382.863281 416.910156 C 382.855469 417.402344 382.441406 417.796875 381.929688 417.796875 "/>
<path style=" stroke:none;fill-rule:evenodd;fill:rgb(0%,0%,0%);fill-opacity:1;" d="M 322.773438 417.734375 C 322.453125 418.019531 321.996094 418.039063 321.636719 417.847656 C 320.042969 416.523438 319.757813 415.910156 318.882813 414.648438 C 316.246094 417.332031 314.382813 418.136719 310.964844 418.136719 C 306.921875 418.136719 303.777344 415.640625 303.777344 410.652344 C 303.777344 406.753906 305.890625 404.101563 308.898438 402.800781 C 311.503906 401.65625 315.144531 401.449219 317.929688 401.136719 L 317.929688 400.515625 C 317.929688 399.367188 318.019531 398.019531 317.347656 397.03125 C 316.761719 396.144531 315.640625 395.78125 314.648438 395.78125 C 312.816406 395.78125 311.191406 396.722656 310.789063 398.664063 C 310.707031 399.101563 310.390625 399.527344 309.957031 399.550781 L 305.300781 399.046875 C 304.90625 398.957031 304.46875 398.640625 304.582031 398.039063 C 305.640625 392.472656 310.613281 390.734375 315.132813 390.6875 L 315.488281 390.6875 C 317.804688 390.71875 320.757813 391.351563 322.558594 393.078125 C 324.894531 395.261719 324.671875 398.175781 324.671875 401.347656 L 324.671875 408.828125 C 324.671875 411.078125 325.605469 412.066406 326.484375 413.277344 C 326.789063 413.71875 326.859375 414.234375 326.46875 414.558594 C 325.484375 415.378906 323.742188 416.894531 322.785156 417.746094 Z M 317.929688 406.023438 C 317.929688 407.898438 317.976563 409.457031 317.03125 411.121094 C 316.269531 412.472656 315.054688 413.304688 313.707031 413.304688 C 311.863281 413.304688 310.785156 411.898438 310.785156 409.820313 C 310.785156 405.730469 314.457031 404.984375 317.929688 404.984375 L 317.929688 406.023438 "/>
<path style=" stroke:none;fill-rule:evenodd;fill:rgb(0%,0%,0%);fill-opacity:1;" d="M 259.808594 417.734375 C 259.492188 418.019531 259.03125 418.039063 258.671875 417.847656 C 257.078125 416.523438 256.789063 415.910156 255.921875 414.648438 C 253.28125 417.332031 251.414063 418.136719 248 418.136719 C 243.957031 418.136719 240.8125 415.640625 240.8125 410.652344 C 240.8125 406.753906 242.921875 404.101563 245.933594 402.800781 C 248.539063 401.65625 252.179688 401.449219 254.964844 401.136719 L 254.964844 400.515625 C 254.964844 399.367188 255.054688 398.019531 254.382813 397.03125 C 253.796875 396.144531 252.671875 395.78125 251.6875 395.78125 C 249.855469 395.78125 248.222656 396.722656 247.824219 398.664063 C 247.742188 399.101563 247.425781 399.527344 246.992188 399.550781 L 242.335938 399.046875 C 241.941406 398.957031 241.503906 398.640625 241.617188 398.039063 C 242.671875 392.472656 247.648438 390.734375 252.167969 390.6875 L 252.523438 390.6875 C 254.839844 390.71875 257.796875 391.351563 259.59375 393.078125 C 261.929688 395.261719 261.703125 398.175781 261.703125 401.347656 L 261.703125 408.828125 C 261.703125 411.078125 262.640625 412.066406 263.519531 413.277344 C 263.824219 413.71875 263.894531 414.234375 263.503906 414.558594 C 262.519531 415.378906 260.777344 416.894531 259.820313 417.746094 Z M 254.964844 406.023438 C 254.964844 407.898438 255.011719 409.457031 254.066406 411.121094 C 253.304688 412.472656 252.089844 413.304688 250.742188 413.304688 C 248.898438 413.304688 247.820313 411.898438 247.820313 409.820313 C 247.820313 405.730469 251.492188 404.984375 254.964844 404.984375 L 254.964844 406.023438 "/>
<path style=" stroke:none;fill-rule:evenodd;fill:rgb(97.264099%,59.568787%,11.376953%);fill-opacity:1;" d="M 262.507813 379.039063 C 262.507813 379.242188 262.339844 379.40625 262.136719 379.40625 L 260.203125 379.40625 C 260 379.40625 259.835938 379.242188 259.835938 379.039063 C 259.835938 373.660156 259.835938 368.277344 259.835938 362.898438 C 259.835938 362.695313 260 362.53125 260.203125 362.53125 L 262.136719 362.53125 C 262.339844 362.53125 262.507813 362.695313 262.507813 362.898438 C 262.507813 368.277344 262.507813 373.660156 262.507813 379.039063 Z M 261.148438 355.703125 C 262.097656 355.703125 262.863281 356.527344 262.863281 357.546875 C 262.863281 358.5625 262.097656 359.390625 261.148438 359.390625 C 260.203125 359.390625 259.4375 358.5625 259.4375 357.546875 C 259.4375 356.527344 260.203125 355.703125 261.148438 355.703125 "/>
<path style=" stroke:none;fill-rule:evenodd;fill:rgb(0%,0%,0%);fill-opacity:1;" d="M 217.71875 384.132813 C 217.71875 383.929688 217.882813 383.765625 218.085938 383.765625 L 219.390625 383.765625 C 219.59375 383.765625 219.757813 383.929688 219.757813 384.132813 L 219.757813 389.128906 C 220.425781 388.890625 221.132813 388.761719 221.78125 388.761719 C 224.871094 388.761719 226.984375 390.808594 226.984375 394.679688 C 226.984375 398.4375 224.230469 400.8125 221.183594 400.808594 C 219.515625 400.804688 218.382813 400.53125 217.71875 400 C 217.71875 394.710938 217.71875 389.421875 217.71875 384.132813 Z M 224.792969 394.660156 C 224.792969 398.195313 221.765625 399.511719 219.777344 398.566406 L 219.777344 391.3125 C 221.539063 390.1875 224.792969 390.484375 224.792969 394.660156 "/>
<path style=" stroke:none;fill-rule:evenodd;fill:rgb(0%,0%,0%);fill-opacity:1;" d="M 229.289063 405.757813 C 228.484375 405.890625 227.507813 405.867188 226.488281 405.464844 C 226.3125 405.378906 226.25 405.214844 226.285156 405.058594 L 226.605469 403.902344 C 226.65625 403.667969 226.835938 403.632813 227.050781 403.6875 C 229.335938 404.476563 230.257813 403.175781 230.910156 401.769531 C 231.140625 401.269531 231.285156 400.734375 231.453125 400.210938 C 229.457031 395.597656 229.113281 394.871094 226.914063 389.785156 C 226.828125 389.582031 226.699219 389.128906 227.257813 389.128906 L 228.613281 389.105469 C 228.816406 389.105469 229.050781 389.269531 229.140625 389.472656 C 231.105469 394.019531 231.082031 394.0625 232.433594 397.214844 C 233.214844 394.855469 233.871094 392.902344 234.96875 389.472656 C 235.03125 389.269531 235.253906 389.105469 235.453125 389.105469 L 236.773438 389.105469 C 237.261719 389.105469 237.214844 389.46875 237.148438 389.671875 C 235.523438 394.742188 234.820313 396.40625 233.300781 401.09375 C 232.640625 403.136719 231.695313 405.355469 229.289063 405.757813 "/>
<path style=" stroke:none;fill-rule:evenodd;fill:rgb(97.264099%,59.568787%,11.376953%);fill-opacity:1;" d="M 247.503906 377.09375 L 247.972656 378.554688 C 248.011719 378.667969 247.972656 378.789063 247.886719 378.863281 C 247.382813 379.378906 246.460938 379.601563 245.585938 379.601563 C 243.660156 379.601563 242.589844 378.3125 242.589844 376.203125 C 242.589844 369.109375 242.589844 362.015625 242.589844 354.925781 C 242.589844 354.722656 242.757813 354.554688 242.960938 354.554688 L 244.894531 354.554688 C 245.097656 354.554688 245.261719 354.722656 245.261719 354.925781 C 245.261719 361.839844 245.261719 368.753906 245.261719 375.667969 C 245.261719 376.773438 245.382813 377.445313 247.136719 376.90625 C 247.289063 376.855469 247.453125 376.941406 247.503906 377.09375 "/>
<path style=" stroke:none;fill-rule:evenodd;fill:rgb(97.264099%,59.568787%,11.376953%);fill-opacity:1;" d="M 271.242188 377.09375 L 271.714844 378.554688 C 271.75 378.667969 271.710938 378.789063 271.625 378.863281 C 271.121094 379.378906 270.199219 379.601563 269.324219 379.601563 C 267.402344 379.601563 266.328125 378.3125 266.328125 376.203125 C 266.328125 369.109375 266.328125 362.015625 266.328125 354.925781 C 266.328125 354.722656 266.496094 354.554688 266.699219 354.554688 L 268.632813 354.554688 C 268.835938 354.554688 269 354.722656 269 354.925781 C 269 361.839844 269 368.753906 269 375.667969 C 269 376.773438 269.121094 377.445313 270.878906 376.90625 C 271.03125 376.855469 271.195313 376.941406 271.242188 377.09375 "/>
<path style=" stroke:none;fill-rule:evenodd;fill:rgb(97.264099%,59.568787%,11.376953%);fill-opacity:1;" d="M 278.734375 377.128906 L 279.203125 378.585938 C 279.238281 378.699219 279.203125 378.820313 279.117188 378.894531 C 278.613281 379.410156 277.691406 379.636719 276.8125 379.636719 C 274.890625 379.636719 273.820313 378.347656 273.820313 376.234375 C 273.820313 369.144531 273.820313 362.050781 273.820313 354.957031 C 273.820313 354.753906 273.984375 354.589844 274.1875 354.589844 L 276.121094 354.589844 C 276.324219 354.589844 276.488281 354.753906 276.488281 354.957031 C 276.488281 361.871094 276.488281 368.785156 276.488281 375.699219 C 276.488281 376.808594 276.613281 377.476563 278.367188 376.941406 C 278.519531 376.890625 278.683594 376.976563 278.734375 377.128906 "/>
<path style=" stroke:none;fill-rule:evenodd;fill:rgb(97.264099%,59.568787%,11.376953%);fill-opacity:1;" d="M 347.710938 376.296875 L 348.496094 377.691406 C 348.566406 377.816406 348.542969 377.960938 348.441406 378.0625 C 347.242188 379.144531 345.785156 379.808594 344.140625 379.808594 C 342.21875 379.808594 340.722656 378.449219 340.722656 376.203125 L 340.722656 364.941406 L 338.421875 364.941406 C 338.222656 364.941406 338.054688 364.777344 338.054688 364.574219 L 338.054688 362.898438 C 338.054688 362.695313 338.222656 362.53125 338.421875 362.53125 L 340.722656 362.53125 L 340.722656 359.472656 C 340.722656 359.273438 340.90625 359.050781 341.09375 358.984375 L 342.636719 358.421875 C 342.96875 358.296875 343.394531 358.386719 343.394531 358.871094 L 343.394531 362.53125 L 347.566406 362.53125 C 348.050781 362.53125 348.160156 362.964844 348.015625 363.289063 L 347.453125 364.574219 C 347.375 364.757813 347.164063 364.941406 346.964844 364.941406 L 343.394531 364.941406 L 343.394531 375.804688 C 343.394531 376.992188 343.984375 377.914063 346.550781 376.601563 L 347.296875 376.183594 C 347.441406 376.097656 347.628906 376.152344 347.710938 376.296875 "/>
<path style=" stroke:none;fill-rule:evenodd;fill:rgb(97.264099%,59.568787%,11.376953%);fill-opacity:1;" d="M 318.933594 376.34375 L 319.621094 377.601563 C 319.789063 377.890625 319.472656 378.261719 319.269531 378.410156 C 317.824219 379.492188 315.652344 379.871094 314.027344 379.808594 C 309.824219 379.648438 306.703125 376.085938 306.703125 371.140625 C 306.703125 365.925781 309.097656 362.152344 313.414063 362.152344 C 319.796875 362.152344 319.964844 369.304688 319.964844 370.289063 C 319.957031 370.398438 320.292969 371.644531 319.144531 371.601563 C 318.835938 371.589844 311.972656 371.601563 309.632813 371.601563 C 309.734375 375.71875 312.371094 377.261719 314.664063 377.261719 C 316.246094 377.261719 317.089844 376.871094 318.507813 376.25 C 318.667969 376.203125 318.851563 376.199219 318.933594 376.34375 Z M 309.671875 369.125 L 317.007813 369.125 C 317.007813 366.382813 315.140625 364.59375 313.40625 364.59375 C 311.484375 364.59375 309.671875 366.621094 309.671875 369.125 "/>
<path style=" stroke:none;fill-rule:evenodd;fill:rgb(97.264099%,59.568787%,11.376953%);fill-opacity:1;" d="M 253.292969 379.039063 C 253.292969 379.238281 253.128906 379.40625 252.925781 379.40625 L 250.988281 379.40625 C 250.789063 379.40625 250.621094 379.242188 250.621094 379.039063 C 250.621094 374.339844 250.621094 369.640625 250.621094 364.941406 L 249.015625 364.941406 C 248.816406 364.941406 248.648438 364.777344 248.648438 364.574219 L 248.648438 362.898438 C 248.648438 362.695313 248.8125 362.53125 249.015625 362.53125 L 250.621094 362.53125 L 250.621094 360.179688 C 250.621094 356.453125 252.433594 354.769531 255.128906 354.546875 C 256.257813 354.546875 256.953125 354.78125 257.597656 355.046875 C 257.78125 355.121094 257.902344 355.296875 257.820313 355.59375 L 257.417969 357.085938 C 257.367188 357.277344 257.160156 357.429688 256.808594 357.28125 C 255.613281 356.808594 254.496094 356.886719 253.871094 357.652344 C 253.507813 358.101563 253.292969 358.796875 253.292969 359.605469 L 253.292969 362.53125 L 256.789063 362.53125 C 257.273438 362.53125 257.382813 362.964844 257.238281 363.289063 L 256.675781 364.574219 C 256.597656 364.757813 256.386719 364.941406 256.1875 364.941406 L 253.292969 364.941406 C 253.292969 369.640625 253.292969 374.339844 253.292969 379.039063 "/>
<path style=" stroke:none;fill-rule:evenodd;fill:rgb(97.264099%,59.568787%,11.376953%);fill-opacity:1;" d="M 220.644531 379.039063 C 220.644531 379.238281 220.480469 379.40625 220.277344 379.40625 L 218.339844 379.40625 C 218.140625 379.40625 217.972656 379.242188 217.972656 379.039063 C 217.972656 374.339844 217.972656 369.640625 217.972656 364.941406 L 216.367188 364.941406 C 216.167969 364.941406 216 364.777344 216 364.574219 L 216 362.898438 C 216 362.695313 216.164063 362.53125 216.367188 362.53125 L 217.972656 362.53125 L 217.972656 360.179688 C 217.972656 356.453125 219.785156 354.769531 222.480469 354.546875 C 223.609375 354.546875 224.304688 354.78125 224.949219 355.046875 C 225.132813 355.121094 225.253906 355.296875 225.171875 355.59375 L 224.769531 357.085938 C 224.71875 357.277344 224.511719 357.429688 224.160156 357.28125 C 222.964844 356.808594 221.847656 356.886719 221.222656 357.652344 C 220.859375 358.101563 220.644531 358.796875 220.644531 359.605469 L 220.644531 362.53125 L 224.140625 362.53125 C 224.625 362.53125 224.734375 362.964844 224.589844 363.289063 L 224.027344 364.574219 C 223.949219 364.757813 223.738281 364.941406 223.539063 364.941406 L 220.644531 364.941406 C 220.644531 369.640625 220.644531 374.339844 220.644531 379.039063 "/>
<path style=" stroke:none;fill-rule:evenodd;fill:rgb(97.264099%,59.568787%,11.376953%);fill-opacity:1;" d="M 238.964844 374.496094 C 238.964844 375.601563 239.109375 377.929688 239.316406 378.785156 C 239.375 379.035156 239.351563 379.40625 238.84375 379.40625 L 237.1875 379.40625 C 236.988281 379.40625 236.878906 379.230469 236.820313 379.039063 L 236.433594 377.972656 C 235.242188 378.839844 233.363281 379.796875 231.328125 379.796875 C 228.644531 379.796875 226.46875 377.972656 226.46875 374.296875 C 226.46875 370.496094 226.46875 366.695313 226.46875 362.898438 C 226.46875 362.695313 226.636719 362.53125 226.839844 362.53125 L 228.773438 362.53125 C 228.976563 362.53125 229.140625 362.695313 229.140625 362.898438 C 229.140625 366.511719 229.140625 370.121094 229.140625 373.734375 C 229.140625 376.449219 230.050781 377.226563 231.894531 377.226563 C 233.273438 377.226563 235.78125 375.96875 236.292969 374.769531 C 236.292969 370.8125 236.292969 366.855469 236.292969 362.898438 C 236.292969 362.695313 236.460938 362.53125 236.660156 362.53125 L 238.597656 362.53125 C 238.800781 362.53125 238.964844 362.695313 238.964844 362.898438 C 238.964844 366.765625 238.964844 370.628906 238.964844 374.496094 "/>
<path style=" stroke:none;fill-rule:evenodd;fill:rgb(97.264099%,59.568787%,11.376953%);fill-opacity:1;" d="M 322.910156 363.015625 C 322.910156 362.632813 323.109375 362.53125 323.398438 362.53125 L 324.859375 362.53125 C 325.0625 362.53125 325.257813 362.570313 325.34375 362.921875 L 325.445313 364.222656 C 327.078125 363.078125 328.714844 362.164063 330.820313 362.164063 C 333.691406 362.164063 335.84375 364.171875 335.84375 368.21875 C 335.84375 371.824219 335.84375 375.433594 335.84375 379.039063 C 335.84375 379.242188 335.675781 379.40625 335.472656 379.40625 L 333.539063 379.40625 C 333.335938 379.40625 333.171875 379.242188 333.171875 379.039063 C 333.171875 375.601563 333.171875 372.167969 333.171875 368.730469 C 333.171875 365.71875 332.03125 364.640625 330.488281 364.640625 C 329.160156 364.640625 327.332031 365.523438 325.582031 367.214844 C 325.582031 371.15625 325.582031 375.097656 325.582031 379.039063 C 325.582031 379.238281 325.414063 379.40625 325.214844 379.40625 L 323.277344 379.40625 C 323.078125 379.40625 322.910156 379.242188 322.910156 379.039063 C 322.910156 373.695313 322.90625 368.355469 322.910156 363.015625 "/>
<path style=" stroke:none;fill-rule:evenodd;fill:rgb(97.264099%,59.568787%,11.376953%);fill-opacity:1;" d="M 281.199219 363.003906 C 281.199219 362.621094 281.480469 362.53125 281.765625 362.53125 L 282.871094 362.53125 C 283.273438 362.53125 283.476563 362.617188 283.597656 363.105469 L 283.824219 364.164063 C 285.433594 363.050781 287.046875 362.164063 289.117188 362.164063 C 290.964844 362.164063 292.472656 362.996094 293.3125 364.667969 C 294.941406 363.34375 297.039063 362.128906 299.15625 362.128906 C 302.113281 362.128906 304.109375 364.171875 304.109375 368.21875 C 304.109375 371.824219 304.109375 375.433594 304.109375 379.039063 C 304.109375 379.242188 303.945313 379.40625 303.742188 379.40625 L 301.808594 379.40625 C 301.605469 379.40625 301.4375 379.242188 301.4375 379.039063 C 301.4375 375.601563 301.4375 372.167969 301.4375 368.730469 C 301.4375 365.71875 300.523438 364.65625 298.980469 364.65625 C 297.664063 364.65625 295.769531 365.480469 293.996094 367.25 C 294.023438 367.558594 294.035156 367.882813 294.035156 368.21875 C 294.035156 371.824219 294.035156 375.433594 294.035156 379.039063 C 294.035156 379.242188 293.871094 379.40625 293.667969 379.40625 L 291.734375 379.40625 C 291.53125 379.40625 291.367188 379.242188 291.367188 379.039063 C 291.367188 375.601563 291.367188 372.167969 291.367188 368.730469 C 291.367188 365.71875 290.292969 364.707031 288.75 364.707031 C 287.421875 364.707031 285.628906 365.523438 283.878906 367.214844 C 283.878906 371.15625 283.878906 375.097656 283.878906 379.039063 C 283.878906 379.238281 283.710938 379.40625 283.507813 379.40625 L 281.574219 379.40625 C 281.371094 379.40625 281.207031 379.242188 281.207031 379.039063 C 281.207031 373.691406 281.199219 368.347656 281.199219 363.003906 "/>
</g>
</svg>
