<?xml version="1.0" encoding="UTF-8"?><svg id="a" xmlns="http://www.w3.org/2000/svg" viewBox="0 0 175.748 38.786">
<title>DHL_2002-logo - brandlogos.net</title><polygon id="b" points="0 38.786 0 0 175.748 0 175.748 38.786 0 38.786" style="fill:#fecc00;"/><path id="c" d="M56.665,16.206c-.768,1.04-2.053,2.848-2.835,3.904-.397.537-1.114,1.512,1.263,1.512h12.515s2.017-2.744,3.708-5.039c2.3-3.122.199-9.618-8.024-9.618H30.908l-5.615,7.629h30.603c1.545,0,1.524.588.769,1.612ZM47.471,23.504c-2.377,0-1.66-.977-1.263-1.514.782-1.056,2.088-2.845,2.856-3.885.756-1.024.776-1.612-.771-1.612h-13.996l-11.277,15.326h27.501c9.083,0,14.14-6.178,15.699-8.314,0-.001-16.235-.001-18.749-.001ZM65.361,31.819h16.133l6.116-8.316-16.131.002c-.005-.001-6.118,8.314-6.118,8.314ZM106.986,6.965l-6.188,8.405h-7.2l6.185-8.405h-16.128l-10.79,14.657h39.46l10.787-14.657h-16.126ZM88.694,31.819h16.127l6.119-8.314h-16.127c-.006-.001-6.119,8.314-6.119,8.314ZM0,26.784v1.766h22.468l1.298-1.766H0ZM26.181,23.504H0v1.764h24.88l1.301-1.764ZM0,31.819h20.061l1.292-1.756H0v1.756ZM152.072,28.549h23.676v-1.766h-22.376l-1.3,1.766ZM149.667,31.819h26.081v-1.756h-24.79l-1.291,1.756ZM155.783,23.504l-1.297,1.766h21.262v-1.766h-19.965ZM134.659,21.622l10.789-14.657h-17.081c-.006,0-10.797,14.657-10.797,14.657h17.089ZM116.187,23.504s-1.179,1.611-1.752,2.387c-2.025,2.736-.234,5.928,6.376,5.928h25.901l6.119-8.314h-36.644v-.001Z" style="fill:#d50029;"/></svg>