<?xml version="1.0" encoding="UTF-8"?><svg id="a" xmlns="http://www.w3.org/2000/svg" viewBox="0 0 170.51 77.42">
<title>FedEx_Express_2000-2006-logo</title><polygon points="151.57 49.15 144.75 41.51 138.01 49.15 123.8 49.15 137.69 33.55 123.8 17.95 138.45 17.95 145.33 25.53 151.95 17.95 166.09 17.95 152.27 33.49 166.28 49.15 151.57 49.15 151.57 49.15" style="fill:#f37920; fill-rule:evenodd;"/><polygon points="96.52 49.15 96.52 0 123.8 0 123.8 10.96 108.08 10.96 108.08 17.95 123.8 17.95 123.8 28.49 108.08 28.49 108.08 38.17 123.8 38.17 123.8 49.15 96.52 49.15 96.52 49.15" style="fill:#f37920; fill-rule:evenodd;"/><path d="M85.01,0v20.12h-.13c-2.55-2.93-5.73-3.95-9.42-3.95-7.57,0-13.27,5.15-15.27,11.95-2.28-7.49-8.17-12.08-16.89-12.08-7.09,0-12.68,3.18-15.6,8.36v-6.44h-14.65v-6.99h15.98V0H0v49.15h13.06v-20.66h13.01c-.39,1.52-.6,3.14-.6,4.86,0,10.25,7.83,17.45,17.83,17.45,8.41,0,13.95-3.95,16.87-11.14h-11.19c-1.51,2.16-2.66,2.81-5.69,2.81-3.51,0-6.53-3.06-6.53-6.69h22.78c.99,8.14,7.33,15.17,16.04,15.17,3.76,0,7.2-1.85,9.3-4.97h.13v3.18h11.51V0h-11.51ZM37.13,28.64c.73-3.12,3.15-5.16,6.17-5.16,3.33,0,5.63,1.98,6.23,5.16.25,0-12.4,0-12.4,0h0ZM78.03,41.67c-4.24,0-6.88-3.96-6.88-8.08,0-4.41,2.29-8.65,6.88-8.65s6.65,4.24,6.65,8.65c0,4.18-2.01,8.08-6.65,8.08h0Z" style="fill:#472f91; fill-rule:evenodd;"/><path d="M132.62,72.56v-.86c1.12-.05,1.55-.53,1.55-1.34v-7.26c0-1.82-.32-2.4-1.66-2.46v-.85h3.68s0,2.94,0,2.94h.05c.35-1.39,1.31-3.26,2.91-3.26,1.13,0,2.02.9,2.02,2.33,0,1.01-.58,1.54-1.27,1.54-.59,0-1.25-.39-1.25-1.39,0-.64.54-1.17.82-1.29-.04-.25-.32-.34-.43-.34-1.63,0-2.58,3.92-2.58,6.25v3.79c0,.8.43,1.28,2.25,1.34v.86h-6.09Z" style="fill:#472f91; fill-rule:evenodd;"/><path d="M124.36,66.69c0-4.54,1.33-6.2,2.72-6.2s2.32,1.66,2.32,5.77-.96,5.77-2.38,5.77c-1.1,0-2.67-1.23-2.67-5.34h0ZM120.99,60.66c.71.07,1.07.29,1.07,1.38v13.2c0,.8-.42,1.28-1.71,1.33v.86h5.98v-.86c-1.55-.05-1.98-.53-1.98-1.33v-4.09h.05c.53.99,1.41,1.73,2.8,1.73,2.91,0,4.81-3.02,4.81-6.7,0-2.72-1.52-6.7-4.57-6.7-1.71,0-2.8,1.23-3.2,2.51h-.05v-2.2h-3.21v.86h0Z" style="fill:#472f91; fill-rule:evenodd;"/><path d="M94.54,72.57v-.86c1.65-.11,1.98-.43,1.98-1.81v-13.02c0-1.39-.32-1.71-1.98-1.82v-.85h12.59v6.43h-.86c-.6-3.45-1.6-5.58-4.72-5.58-1.89,0-2.43.59-2.43,1.82v5.55h.98c1.9,0,2.37-.99,2.67-3.21h.85v7.37h-.85c-.37-2.24-1.07-3.14-2.72-3.14h-.93v6.46c0,1.07.4,1.81,2,1.81,3.44,0,5.05-1.65,5.52-5.76h.86v6.62h-12.97Z" style="fill:#472f91; fill-rule:evenodd;"/><path d="M120.45,72.57h-5.55v-.86c1.01,0,1.23-.24,1.23-.59,0-.38-.24-.67-2.24-3.68-1.68,2.67-1.98,3.17-1.98,3.52,0,.45.43.69,1.23.75v.86h-4.57v-.86c1.03-.16,1.72-.53,2.52-1.76l2.21-3.42-3.41-5.18c-.35-.53-.59-.64-1.44-.69v-.86h5.28v.86c-.83,0-1.2.08-1.2.56,0,.37.29.61,2.16,3.49,1.65-2.61,1.92-2.91,1.92-3.47,0-.38-.29-.59-1.28-.59v-.86h4.37v.86c-.58,0-1.36.43-1.97,1.31l-2.46,3.6,3.28,5.02c.44.67.8.98,1.89,1.12v.86h0Z" style="fill:#472f91; fill-rule:evenodd;"/><path d="M144.02,65.09c0-3.41,1.02-4.74,2.54-4.74,1.41,0,2.21,1.33,2.21,4.74h-4.75ZM151.38,66.11c0-3.84-1.87-6.61-4.83-6.61s-5.15,2.77-5.15,6.7c0,3.34,2.18,6.7,5.5,6.7,2.53,0,3.92-1.53,4.45-4.09l-.85-.16c-.48,1.88-1.36,3.24-3.34,3.24-1.79,0-3.15-2.03-3.15-5.77h7.37Z" style="fill:#472f91; fill-rule:evenodd;"/><path d="M152.75,72.57v-4.46h.86c.26,1.68,1.34,3.92,3.31,3.92,1.33,0,2.35-.8,2.35-2.32,0-3.44-6.4-1.92-6.4-6.62,0-1.66,1.2-3.6,3.55-3.6,1.46,0,2.05.8,2.53.8.26,0,.32-.29.43-.48h.85v3.87h-.85c-.3-1.5-1.2-3.33-2.86-3.33-1.17,0-1.95.77-1.95,1.92,0,3.21,6.62,1.76,6.62,6.67,0,1.66-1.3,3.95-4.13,3.95-1.79,0-2.32-.96-2.97-.96-.29,0-.42.4-.47.64h-.86Z" style="fill:#472f91; fill-rule:evenodd;"/><path d="M162.08,72.57v-4.46h.86c.26,1.68,1.34,3.92,3.31,3.92,1.33,0,2.35-.8,2.35-2.32,0-3.44-6.4-1.92-6.4-6.62,0-1.66,1.2-3.6,3.55-3.6,1.46,0,2.05.8,2.53.8.26,0,.32-.29.43-.48h.85v3.87h-.85c-.3-1.5-1.2-3.33-2.86-3.33-1.18,0-1.95.77-1.95,1.92,0,3.21,6.62,1.76,6.62,6.67,0,1.66-1.3,3.95-4.13,3.95-1.79,0-2.32-.96-2.97-.96-.29,0-.42.4-.47.64h-.86Z" style="fill:#472f91; fill-rule:evenodd;"/></svg>