<?xml version="1.0" encoding="utf-8"?>
<!-- Generator: Adobe Illustrator 19.2.1, SVG Export Plug-In . SVG Version: 6.00 Build 0)  -->
<svg version="1.1" id="layer" xmlns="http://www.w3.org/2000/svg" xmlns:xlink="http://www.w3.org/1999/xlink" x="0px" y="0px"
	 viewBox="0 0 652 652" style="enable-background:new 0 0 652 652;" xml:space="preserve">
<style type="text/css">
	.st0{fill:#2B8EFF;}
</style>
<path d="M242.8,262.2c-0.2-0.3-0.6-0.5-1-0.5h-24.7c-0.6,0-1.1,0.4-1.3,1l-16.1,75.7c-0.1,0.7,0.3,1.4,1,1.5c0.1,0,0.1,0,0.2,0h24.7
	c0.6,0,1.1-0.4,1.2-1l16.1-75.6C243.1,262.9,243.1,262.5,242.8,262.2z M195.2,265.5c-4.7-4.2-10.9-6.4-17.2-6.1
	c-8.6,0.1-16.9,3.7-22.7,10l7.3-32.9c0.2-0.3,0.2-0.7,0-1.1c-0.3-0.3-0.8-0.4-1.2-0.3h-24.3c-0.6,0-1.1,0.4-1.2,1l-22,102.3
	c-0.1,0.7,0.3,1.4,1,1.5c0.1,0,0.1,0,0.2,0h24.7c0.6,0,1.1-0.4,1.2-1l8.2-39.4c2.6-11.9,8.8-17.8,16.8-17.9c5.2,0,6.9,2,7.2,7.5
	c-0.2,3.1-0.7,6.2-1.4,9.3l-8.3,40c-0.1,0.7,0.3,1.4,1,1.5c0.1,0,0.1,0,0.2,0h24.7c0.6,0,1.1-0.4,1.2-1l8.8-41.9
	c1.2-4.9,1.8-9.8,1.9-14.8C201.8,275.9,199.5,269.9,195.2,265.5z M87.2,277.6c-7.5-3.6-13.6-6.1-17.6-8.2s-5.5-4-5.5-6.8
	c0-4.7,4.4-8.7,13.4-8.8c10.6,0,15.3,4.1,15.4,12.2l0,0c0,0.3,0.1,0.6,0.4,0.9c0.2,0.2,0.5,0.4,0.9,0.4h23.9
	c0.3,0.1,0.5,0.1,0.8,0.1c0.1-0.3,0.1-0.6,0-0.9c-0.7-22.2-15.9-34.2-42.5-34c-10.3-0.5-20.4,2.6-28.6,8.8
	c-6.7,5.7-10.6,14.1-10.3,23c0,13.7,8.1,23,23.9,30.4c7.7,3.7,13.9,6.1,18.2,8.6c4.3,2.5,6.1,4.4,6.1,7.6c0,5.4-5.3,9.8-15.4,9.8
	c-11.7,0-16.3-4.1-16.8-14.6c0-0.7-0.5-1.2-1.2-1.2H27.7c-0.3,0-0.7,0.1-0.9,0.4c-0.1,0.3-0.1,0.6,0,0.9c1,23.5,16.8,36.9,43.5,36.9
	h-0.1c11,0.6,21.9-2.7,30.8-9.2c7.4-6.1,11.5-15.3,11.2-24.9C112.2,294.1,103.4,285.5,87.2,277.6z M540.8,286.2l5.2-24.9
	c0.1-0.3,0.1-0.7,0-1c-0.2-0.3-0.5-0.5-0.9-0.5c-0.8-0.1-1.6-0.1-2.4,0c-9.8-0.6-19.2,4.3-24.3,12.7l1.9-9.2c0.2-0.3,0.2-0.7,0-1
	c-0.2-0.3-0.6-0.5-1-0.5h-23c-0.6,0-1.1,0.4-1.2,1l-16.2,75.5c-0.1,0.7,0.3,1.4,1,1.5c0.1,0,0.1,0,0.2,0h24.7c0.6,0,1.1-0.4,1.2-1
	l5.3-24.9c1.1-7.5,3.5-14.7,7.2-21.3c3.1-4.7,8.5-7.4,14.2-6.9c2.3,0,4.5,0.4,6.6,1.3c0.3,0.2,0.7,0.2,1,0
	C540.5,286.8,540.7,286.6,540.8,286.2z M485.5,262.2c-0.2-0.3-0.6-0.5-1-0.5h-24.7c-0.6,0-1.1,0.4-1.2,1l-16.2,75.7
	c-0.1,0.7,0.3,1.4,1,1.5c0.1,0,0.1,0,0.2,0h24.7c0.6,0,1.1-0.4,1.2-1l16.1-75.6C485.8,262.9,485.7,262.5,485.5,262.2z M613.7,269
	c-7.3-6.7-17-10.2-26.9-9.6c-11.9-0.2-23.3,4.6-31.4,13.3c-8,8.8-12.3,20.4-12.2,32.3c-0.5,10,3.1,19.8,9.8,27.2
	c7.3,7,17.2,10.7,27.3,10.2l0,0c19.1,0,34.5-10.3,39.1-25.6c0.2-0.3,0.2-0.8,0-1.1c-0.2-0.3-0.6-0.5-1-0.5h-26.1
	c-0.5,0-0.9,0.2-1.1,0.7c-2,4-6.2,6.5-10.7,6.3c-7,0-10.5-3.6-10.6-11.7V309h51c0.6,0,1.1-0.4,1.2-1c0.6-3.9,0.9-7.8,0.9-11.7
	C623.8,286.3,620.4,276.4,613.7,269z M596.9,291.2h-25c0.7-7.7,7.1-13.6,14.9-13.6c6.7,0,10.3,4,10.5,12.5
	C597,290.5,596.9,290.8,596.9,291.2z M318.5,267.6c-5.1-5.8-12.5-8.9-20.2-8.6c-8.2,0-16,3.3-21.5,9.3l1.1-5c0.2-0.3,0.2-0.7,0-1
	c-0.3-0.3-0.7-0.5-1.1-0.5h-23.3c-0.6,0-1.1,0.4-1.2,1l-22.6,106c-0.1,0.7,0.3,1.4,1,1.5c0.1,0,0.1,0,0.2,0h24.7
	c0.6,0,1.1-0.4,1.2-1l8.3-38.9c4.3,7.7,12.5,12.4,21.3,12.2c22.8,0,39.4-21.6,39.4-50.7C326.4,283.1,323.8,274.6,318.5,267.6z
	 M293.3,312.2c-2.4,4.2-6.8,6.9-11.7,7.2c-6.8,0-10.6-4.2-10.8-12.9c0-14.7,7.3-25.7,18.2-25.8c6.1,0,9.2,3.9,9.4,12.8
	C298.6,300.1,296.8,306.6,293.3,312.2z M452.7,262.4c-0.2-0.4-0.7-0.6-1.1-0.6h-25.2c-0.5,0-0.9,0.3-1.1,0.7L404.9,308l1-44.7
	c0.1-0.3,0.1-0.6,0-0.9c-0.3-0.5-0.8-0.8-1.4-0.7h-23.7c-0.5,0-0.9,0.3-1.1,0.7l-20.5,46.1l-0.7-45.6c0-0.7-0.5-1.2-1.2-1.2l0,0h-24
	c-0.4,0-0.7,0.1-0.9,0.4c-0.2,0.2-0.4,0.6-0.4,0.9l6.6,75.8c0.1,0.7,0.6,1.2,1.3,1.2h25.1c0.5,0,1-0.3,1.2-0.7l20.2-45.2l-0.9,44.7
	c0,0.3,0.1,0.7,0.4,0.9c0.2,0.2,0.5,0.3,0.9,0.4h25.2c0.5,0,0.9-0.3,1.2-0.7l39.8-75.8C452.9,263.2,452.9,262.7,452.7,262.4z
	 M219.6,252.3h232.6c0.6,0,1.1-0.4,1.2-1l4.4-19.9c0.1-0.3,0.1-0.7,0-1.1c-0.3-0.3-0.6-0.4-1-0.4l-237,20c-0.7,0.1-1.2,0.6-1.2,1.3
	C218.6,251.7,219,252.2,219.6,252.3z"/>
<path class="st0" d="M491.7,230.5c-0.3-0.3-0.6-0.4-1-0.4h-25c-0.6,0-1.1,0.4-1.2,1v0.9l-4,18.9c-0.1,0.7,0.3,1.4,1,1.5
	c0.1,0,0.1,0,0.2,0h24.7c0.6,0,1.1-0.4,1.2-1l4.3-19.8C492.1,231.2,492,230.8,491.7,230.5z"/>
<path d="M53.8,421.5h-4.1c-0.4,0-0.8-0.1-1.1-0.3c-0.3-0.2-0.5-0.5-0.7-0.9l-2.1-6.1H34.1l-2.1,6.1c-0.1,0.3-0.3,0.6-0.6,0.8
	c-0.3,0.2-0.7,0.4-1.1,0.4h-4.1l11.2-28.4h5.3L53.8,421.5z M44.5,410.8l-3.5-9.5c-0.2-0.5-0.4-1-0.5-1.5c0-0.5-0.2-1.1-0.5-1.8
	l-0.5,1.9c0,0.5-0.4,1.1-0.5,1.5l-3.4,9.4H44.5z M81.7,393.1v28.4H79c-0.4,0.1-0.7,0.1-1.1,0c-0.3-0.2-0.6-0.4-0.8-0.7l-14.8-19.2
	c0,0.9,0,1.6,0,2.4v17.4h-4.3v-28.4h3h0.4h0.4l0.4,0.4l14.9,19.1c0-0.5,0-0.9,0-1.4v-18.1H81.7z M104.9,421.5h-5.3v-28.4h5.3V421.5z
	 M136.2,393.1v28.4h-2.7c-0.3,0.1-0.7,0.1-1,0c-0.3-0.2-0.6-0.4-0.9-0.7l-14.8-19c0,0.9,0,1.6,0,2.4v17.4h-4.7v-28.6h3.3h0.5h0.4
	l0.4,0.4l14.9,19.1c0-0.5,0-0.9,0-1.4c0-0.4,0-0.8,0-1.2v-16.9H136.2z M167,407.2v11.5c-1.4,1-3,1.8-4.6,2.3
	c-1.7,0.5-3.5,0.8-5.2,0.8c-2.1,0-4.1-0.4-6.1-1.1c-1.8-0.7-3.4-1.7-4.8-3c-1.3-1.3-2.4-2.8-3.1-4.6c-0.8-1.9-1.1-4-1.1-6.1
	c0-2.1,0.3-4.1,1-6.1c0.7-1.7,1.7-3.3,3-4.6c1.3-1.3,2.9-2.3,4.7-3c1.9-0.8,4-1.1,6.1-1.1c1.1-0.1,2.1-0.1,3.2,0
	c0.9,0.2,1.9,0.4,2.8,0.7c0.8,0.3,1.6,0.7,2.3,1.2c0.7,0.4,1.4,0.9,2,1.5l-1.5,2.4c-0.2,0.4-0.6,0.6-1,0.7c-0.4,0.2-0.8,0.2-1.2,0
	l-1.3-0.8c-0.5-0.2-1-0.5-1.5-0.6l-1.8-0.5c-0.7-0.1-1.5-0.1-2.2,0c-1.3,0-2.6,0.2-3.8,0.7c-1.1,0.5-2.1,1.1-2.9,2
	c-0.8,0.9-1.4,2-1.8,3.2c-0.4,1.3-0.7,2.7-0.7,4.1c0,1.5,0.2,3,0.7,4.4c0.4,1.2,1.1,2.3,1.9,3.2c0.9,0.9,1.9,1.6,3,2.1
	c1.3,0.4,2.6,0.7,4,0.7c0.9,0,1.9-0.1,2.8-0.3c0.8-0.2,1.6-0.5,2.4-0.9v-4.7h-3.6c-0.3,0-0.6-0.1-0.8-0.3c-0.1-0.2-0.1-0.5,0-0.7v-3
	L167,407.2z M195.2,421.5h-4.7c-0.8,0.1-1.6-0.3-2-1l-6.1-9.1c-0.2-0.3-0.4-0.6-0.7-0.7c-0.4-0.1-0.8-0.1-1.2,0h-2.2v11.1h-5.3
	v-28.6h8.7c1.7,0,3.4,0.2,5,0.6c1.2,0.4,2.4,0.9,3.4,1.7c0.8,0.7,1.5,1.6,1.9,2.6c0.7,2,0.7,4.1,0,6.1c-0.3,0.8-0.7,1.6-1.2,2.3
	c-0.6,0.7-1.2,1.3-1.9,1.8c-0.8,0.5-1.7,0.9-2.7,1.2c0.3,0.2,0.6,0.5,0.9,0.7c0.3,0.3,0.6,0.6,0.8,1L195.2,421.5z M181.7,406.6
	c0.9,0,1.7-0.1,2.6-0.4c0.7-0.2,1.3-0.6,1.9-1c0.4-0.5,0.8-1,1-1.6c0.2-0.6,0.4-1.3,0.4-1.9c0.1-1.3-0.4-2.5-1.4-3.3
	c-1.3-0.9-2.8-1.3-4.4-1.2h-3.4v9.4H181.7z M223.7,421.5h-4.1c-0.4,0-0.8-0.1-1.1-0.3c-0.3-0.2-0.5-0.5-0.7-0.9l-2.1-6.1h-11.8
	l-2.1,6.1c-0.1,0.3-0.3,0.6-0.6,0.8c-0.3,0.2-0.7,0.4-1.1,0.4H196l11.2-28.4h5.4L223.7,421.5z M214.4,410.8l-3.5-9.5
	c-0.2-0.5-0.4-1-0.5-1.5l-0.4-1.8l-0.5,1.9c0,0.5-0.4,1.1-0.5,1.5l-3.4,9.4L214.4,410.8z M258.6,393.1v28.4H254v-18.2
	c-0.1-0.8-0.1-1.6,0-2.4l-8.6,16.2c-0.3,0.7-1,1.2-1.8,1.2h-0.8c-0.8,0-1.5-0.4-1.8-1.2l-8.7-16.2c0,0.4,0,0.9,0,1.3
	c0,0.4,0,0.8,0,1.2v18.2h-4.6v-28.4h5c0.1,0,0.3,0,0.4,0l0.3,0.4l8.5,15.8c0.2,0.4,0.4,0.9,0.6,1.3l0.5,1.3c0-0.5,0.4-0.9,0.6-1.4
	c0.2-0.4,0.4-0.9,0.6-1.3l8.3-15.4l0.4-0.4h0.4h5.3V393.1z M307.2,393.1v28.4h-4.6v-18.2c-0.1-0.8-0.1-1.6,0-2.4l-8.6,16.2
	c-0.3,0.7-1,1.2-1.8,1.2h-0.8c-0.8,0-1.5-0.4-1.8-1.2l-8.7-16.2c0,0.4,0,0.9,0,1.3c0,0.4,0,0.8,0,1.2v18.2h-4.6v-28.4h5
	c0.1,0,0.3,0,0.4,0l0.3,0.4l8.5,15.8c0.2,0.4,0.4,0.9,0.6,1.3l0.5,1.3c0-0.5,0.4-0.9,0.6-1.4c0.2-0.4,0.4-0.9,0.6-1.3l8.3-15.4
	l0.4-0.4h0.4h5.3V393.1z M319.8,421.5h-5.3v-28.4h5.3V421.5z M346.6,414.8c0.3,0,0.6,0.1,0.8,0.4l2.4,2.2c-1.2,1.4-2.6,2.5-4.3,3.3
	c-1.9,0.8-4,1.2-6.1,1.2c-1.9,0-3.9-0.3-5.7-1.1c-3.3-1.4-5.9-4.2-7-7.6c-0.7-1.9-1-4-1-6.1c0-2.1,0.3-4.1,1-6.1
	c1.2-3.5,3.9-6.2,7.3-7.6c3.6-1.4,7.6-1.4,11.2,0c1.5,0.6,2.9,1.5,4.1,2.7l-2.1,3.1l-0.4,0.4c-0.2,0.1-0.5,0.1-0.7,0h-0.6l-0.7-0.4
	l-0.9-0.5l-1.2-0.5c-0.5-0.2-1-0.3-1.5-0.4c-0.6-0.1-1.3-0.1-1.9,0c-1.2,0-2.4,0.2-3.5,0.7c-1,0.4-2,1.1-2.7,1.9
	c-0.8,0.9-1.4,2-1.8,3.2c-0.4,1.4-0.6,2.8-0.6,4.2c0.1,1.2,0.3,2.5,0.7,3.6c0.4,1.1,1,2.2,1.8,3.1c0.8,0.8,1.7,1.5,2.7,2
	c1.1,0.4,2.2,0.7,3.4,0.7h1.9c0.6-0.1,1.1-0.2,1.6-0.4l1.4-0.7l1.3-1l0.4-0.3L346.6,414.8z M376.3,421.5h-4.8
	c-0.8,0.1-1.6-0.3-1.9-1l-6.1-9.1c-0.1-0.3-0.4-0.6-0.7-0.7c-0.4-0.1-0.8-0.1-1.2,0h-2.3v11.1H354v-28.6h8.7c1.7,0,3.4,0.2,5,0.6
	c1.2,0.3,2.4,0.9,3.4,1.7c0.8,0.7,1.5,1.6,1.9,2.6c0.7,2,0.7,4.1,0,6.1c-0.3,0.8-0.7,1.6-1.2,2.3c-0.5,0.7-1.2,1.3-1.9,1.8
	c-0.8,0.5-1.7,1-2.7,1.2c0.3,0.2,0.7,0.5,1,0.7c0.3,0.3,0.6,0.6,0.8,1L376.3,421.5z M362.7,406.6c0.9,0,1.8-0.1,2.6-0.4
	c0.7-0.2,1.3-0.6,1.8-1c0.5-0.4,0.8-1,1-1.6c0.2-0.6,0.4-1.3,0.4-1.9c0.1-1.3-0.4-2.5-1.4-3.3c-1.3-0.9-2.8-1.3-4.4-1.2h-3.4v9.4
	H362.7z M407.1,407.2c0.1,2.1-0.3,4.1-1,6.1c-0.6,1.7-1.6,3.3-2.9,4.6c-1.3,1.3-2.8,2.4-4.5,3c-1.9,0.8-4,1.1-6.1,1.1
	c-2.1,0.1-4.1-0.3-6.1-1.1c-1.7-0.7-3.3-1.7-4.6-3c-1.3-1.3-2.3-2.9-2.9-4.6c-0.8-1.9-1.1-4-1.1-6.1c0-2,0.4-3.9,1.1-5.8
	c0.6-1.7,1.6-3.3,2.9-4.6c1.3-1.3,2.9-2.3,4.6-3c1.9-0.8,4-1.1,6.1-1.1c1.4,0,2.7,0.2,4.1,0.5c1.2,0.3,2.4,0.8,3.5,1.4
	c1.1,0.6,2,1.3,2.9,2.2c0.8,0.9,1.6,1.9,2.2,2.9c0.6,1.1,1,2.3,1.3,3.5C406.8,404.6,407,405.9,407.1,407.2z M401.7,407.2
	c0-1.4-0.2-2.8-0.6-4.2c-0.4-1.1-1-2.2-1.8-3.2c-0.8-0.9-1.8-1.5-2.9-1.9c-2.4-1-5.1-1-7.5,0c-1.1,0.4-2.1,1.1-2.9,1.9
	c-0.8,0.9-1.4,2-1.8,3.2c-0.9,2.7-0.9,5.7,0,8.4c0.4,1.1,1,2.2,1.8,3.1c0.8,0.9,1.8,1.5,2.9,2c2.4,0.9,5.1,0.9,7.5,0
	c1.1-0.5,2-1.2,2.9-2c0.8-0.9,1.4-2,1.8-3.1C401.5,410.1,401.7,408.7,401.7,407.2z M442.8,414.8c0.3,0,0.6,0.1,0.8,0.4l2.1,2.2
	c-1.2,1.4-2.6,2.5-4.3,3.3c-1.9,0.8-4,1.2-6.1,1.2c-2,0-3.9-0.3-5.7-1.1c-1.6-0.7-3.1-1.8-4.3-3c-1.1-1.3-2-2.9-2.6-4.6
	c-0.6-2-1-4-0.9-6.1c-0.1-2.1,0.3-4.1,1-6.1c0.7-1.7,1.6-3.3,2.9-4.6c1.3-1.3,2.8-2.3,4.4-3c1.8-0.8,3.8-1.1,5.7-1.1
	c1.9,0,3.7,0.3,5.5,1c1.5,0.6,2.9,1.5,4.1,2.7l-1.8,2.5l-0.4,0.4c-0.2,0.1-0.5,0.1-0.7,0H442l-1,0.3l-0.9-0.5l-1.1-0.5l-1.5-0.4
	c-0.7-0.1-1.3-0.1-2,0c-1.2,0-2.4,0.2-3.5,0.7c-1,0.4-2,1.1-2.7,1.9c-0.8,0.9-1.4,2-1.8,3.2c-0.4,1.4-0.6,2.8-0.6,4.2
	c0,1.5,0.2,2.9,0.7,4.3c0.4,1.1,1,2.2,1.8,3.1c0.8,0.8,1.7,1.5,2.7,2c1.1,0.4,2.2,0.7,3.4,0.7h1.9c0.5-0.1,1.1-0.2,1.6-0.4l1.9-1.2
	l1.3-1c0.1-0.1,0.3-0.2,0.4-0.3L442.8,414.8z M476.8,407.2c0.1,2.1-0.3,4.1-1,6.1c-0.6,1.7-1.6,3.3-2.9,4.6c-1.3,1.3-2.8,2.4-4.6,3
	c-3.8,1.5-8,1.5-11.7,0c-1.7-0.7-3.3-1.7-4.6-3c-1.3-1.3-2.3-2.9-3-4.6c-0.7-1.9-1.1-4-1-6.1c0-2,0.3-3.9,1-5.8
	c0.7-1.7,1.7-3.3,3-4.6c1.3-1.3,2.9-2.3,4.6-3c1.9-0.8,4-1.2,6.1-1.1c1.4,0,2.7,0.2,4.1,0.5c1.2,0.3,2.4,0.8,3.5,1.4
	c1,0.6,2,1.3,2.9,2.2c0.8,0.9,1.6,1.9,2.2,2.9c0.6,1.1,1,2.3,1.3,3.5C476.8,404.6,476.9,405.9,476.8,407.2z M471.4,407.2
	c0-1.4-0.2-2.8-0.6-4.2c-0.4-1.2-1-2.2-1.8-3.2c-0.8-0.9-1.7-1.5-2.8-1.9c-2.4-1-5.1-1-7.5,0c-1.1,0.4-2.1,1.1-2.9,1.9
	c-0.8,0.9-1.4,2-1.8,3.2c-0.9,2.7-0.9,5.7,0,8.4c0.3,1.2,0.9,2.2,1.8,3.1c0.8,0.9,1.8,1.5,2.9,2c2.4,0.9,5.1,0.9,7.5,0
	c1.1-0.5,2-1.1,2.8-2c0.8-0.9,1.4-2,1.8-3.1C471.2,410.1,471.4,408.7,471.4,407.2L471.4,407.2z M513.3,393.1v28.4h-4.7v-18.2
	c-0.1-0.8-0.1-1.6,0-2.4l-8.6,16.2c-0.3,0.7-1,1.2-1.8,1.2h-0.8c-0.8,0-1.5-0.4-1.8-1.2l-8.7-16.2c0,0.4,0,0.9,0,1.3
	c0,0.4,0,0.8,0,1.2v18.2h-4.7v-28.4h5c0.1,0,0.3,0,0.4,0v0.4l8.5,15.8c0.2,0.4,0.4,0.9,0.6,1.3l0.5,1.3c0.2-0.5,0.4-0.9,0.6-1.4
	l0.6-1.3l9.2-15.4l0.4-0.4h0.4h5.1L513.3,393.1z M529.8,393.1c1.7,0,3.3,0.2,4.9,0.7c1.3,0.4,2.4,1,3.5,1.9c0.9,0.8,1.6,1.8,2,2.9
	c0.4,1.2,0.7,2.4,0.7,3.7c0,1.3-0.2,2.6-0.7,3.8c-0.5,1.1-1.2,2.1-2.1,3c-1,0.9-2.2,1.5-3.5,1.9c-1.6,0.5-3.2,0.8-4.9,0.7H526v10
	h-5.3v-28.4H529.8z M529.8,407.4c0.9,0,1.7-0.1,2.6-0.4c0.7-0.2,1.3-0.6,1.8-1c0.5-0.5,0.9-1.1,1.1-1.7c0.2-0.7,0.4-1.4,0.4-2.1
	c0-0.7-0.1-1.4-0.4-2.1c-0.2-0.6-0.6-1.1-1-1.6c-0.5-0.5-1.2-0.8-1.8-1c-0.8-0.1-1.7-0.1-2.6,0H526v10.2L529.8,407.4z M568.6,421.5
	h-4.1c-0.4,0-0.8-0.1-1.2-0.3c-0.3-0.2-0.5-0.5-0.6-0.9l-2.1-6.1h-12l-2.1,6.1c-0.1,0.3-0.3,0.6-0.6,0.8c-0.3,0.3-0.7,0.4-1.2,0.4
	h-4.1l11.2-28.4h5.4L568.6,421.5z M559.2,410.8l-3.5-9.5c-0.2-0.5-0.4-1-0.5-1.5l-0.6-1.8c-0.1,0.6-0.3,1.3-0.5,1.9
	c0,0.5-0.4,1.1-0.5,1.5l-3.5,9.4H559.2z M596.2,393.1v28.4h-2.7c-0.3,0.1-0.7,0.1-1,0c-0.3-0.2-0.6-0.4-0.8-0.7l-14.9-19
	c0.1,0.8,0.1,1.6,0,2.4v17.4h-4.6v-28.6h3.3h0.4h0.4l0.4,0.4l14.9,19.1c0-0.5,0-0.9,0-1.4c0-0.4,0-0.9,0-1.2v-16.9H596.2z
	 M615.7,410.5v11h-5.2v-11l-10.4-17.4h4.9c0.4,0,0.8,0.1,1.1,0.4c0.3,0.2,0.5,0.5,0.7,0.9l5.2,9.5l0.9,1.6c0,0.5,0.4,1,0.6,1.5
	l0.5-1.5l0.8-1.6l5.2-9.5c0.2-0.3,0.4-0.6,0.7-0.8c0.2-0.2,0.5-0.4,0.9-0.4h4.7L615.7,410.5z"/>
</svg>
