<?xml version="1.0" encoding="UTF-8"?><svg id="Layer_1" xmlns="http://www.w3.org/2000/svg" viewBox="0 0 352.02 421.18"><defs><style>.cls-1{fill:#ffbe00;}.cls-2{fill:#300;}</style></defs><path class="cls-2" d="M52.38,347.99c-29.75-24.49-45.47-59.74-45.47-101.85V46C53.9,20.96,110.79,8.27,176.01,8.27s122.12,12.69,169.1,37.73v200.14c0,42.1-15.72,77.33-45.47,101.85-27.22,22.43-113.7,60.58-123.64,64.93-9.92-4.34-96.4-42.49-123.62-64.93Z"/><path class="cls-1" d="M47.33,353.6C16.34,328.08,0,291.42,0,247.6V39.27C48.9,13.21,108.12,0,176.01,0s127.11,13.21,176.01,39.27v208.33c0,43.82-16.34,80.49-47.33,106.01-28.33,23.35-118.35,63.06-128.68,67.57-10.33-4.52-100.36-44.23-128.68-67.58h0ZM244.18,175.43c.05-2.67.35-5.31.92-7.92.56-2.61,1.37-5.14,2.43-7.59,1.06-2.45,2.34-4.78,3.85-6.97s3.22-4.23,5.12-6.09c1.91-1.86,3.97-3.52,6.2-4.97,2.23-1.45,4.58-2.68,7.04-3.67,2.47-.99,5.01-1.73,7.62-2.22,2.61-.49,5.25-.72,7.9-.69,12.38-.66,23.58,2.67,33.61,10v26.78c-7.48-7.85-16.63-12.06-27.43-12.64-8.68-.08-17.71,3.76-18.01,14.71-.3,11.21,8.72,15.63,20.12,22.37,25.58,15.12,30.53,28.71,29.93,46.66-.58,19.69-14.08,41.19-44.34,41.19-12.08-.14-23.3-3.32-33.66-9.56v-28.36c8.32,7.56,18.08,11.74,29.27,12.53,11.23.06,18.63-6.42,18.36-17.15-.23-9.66-5.66-14.92-19.13-22.87-25.25-14.89-29.79-27.14-29.83-43.52M169.95,256.91c3.2,1.21,6.52,1.83,9.94,1.86,17.6,0,26.04-16.26,26.04-49.93s-7.36-48.75-25.14-48.75c-3.77-.03-7.39.71-10.85,2.22l.02,94.6ZM169.95,346.91h-30.63v-200.65c12.66-7.82,26.42-11.47,41.27-10.95,36.55,0,56.64,27.88,56.64,72.76s-19.49,75.75-53.49,75.75c-4.68.08-9.27-.5-13.79-1.75v64.84ZM31.8,235.2v-96.78h30.61v98.14c0,8.73,2.1,21.66,16.14,21.66,5.2.21,10.02-1.05,14.46-3.79v-116.02h30.57v133.57c-14.12,8.86-29.5,12.98-46.14,12.36-30.3,0-45.66-16.53-45.66-49.15M335.85,43.65c-21.74-2.03-44.32-3.37-67.32-3.37-85.3,0-176.75,18.44-252.36,88.15v119.16c0,38.81,14.28,71.22,41.4,93.45,23.95,19.59,97.65,53.15,118.44,62.37,20.52-9.08,94.03-42.2,118.41-62.37,27.29-22.61,41.43-54.27,41.43-93.45V43.65"/></svg>