<?xml version="1.0" encoding="UTF-8"?><svg id="a" xmlns="http://www.w3.org/2000/svg" viewBox="0 0 2479.862 412.0704">
<title>USPS_1993-logo - brandlogos.net</title><path id="b" d="M668.6983.0276L86.8861.0552l-.3451,1.9323s342.0371,70.2542,348.814,71.4412c78.5908,13.8714,76.1478,29.0402,76.1478,29.0402,55.0716-.276,61.8347,1.9461,71.4688,9.9791,28.9574,24.1818-18.1087,95.4573-18.1087,95.4573-6.7356,4.9689-515.547,201.4597-515.547,201.4597h532.3308L668.6845.0414l.0138-.0138ZM780.2493.0276l-22.0977,104.0286c-7.9226,35.9414,16.3144,52.2145,56.6864,52.2145,40.5238,0,71.3308-16.2868,79.0463-52.2145,22.4703-104.0286-.2484,0,22.4703-104.0286h-33.8849s-17.115,80.0263-20.0825,93.732c-5.1069,24.0024-17.7637,38.3292-42.5942,38.3292-25.9209-.207-31.2486-14.5615-25.9347-38.3292-.5935,2.4016,20.1653-93.732,20.1653-93.732h-33.7743ZM948.8179.0276l-32.5737,153.4688h30.0202l23.6848-113.8973h.6902l37.8876,113.8973h42.5942L1083.6397.0276h-29.9512l-24.1818,115.1672h-.4141L992.6819.0276h-43.864ZM1116.1168.0276l-32.477,153.4688h33.802L1149.974.0276h-33.8572ZM1172.6514.0276l-5.3691,24.4302h47.7563l-27.4253,129.0524h33.8296l27.3978-129.0524h47.7149L1301.7037.0276h-129.0524ZM1324.4225.0276l-32.7531,153.4688h111.2197l5.1759-24.4302h-77.2244l8.7783-41.9455h67.3971l4.886-22.6635h-67.3694l8.516-40.0131h77.321L1435.4627.0138h-111.054l.0138.0138ZM1460.1276.0276l-32.4909,153.4688h69.3157c42.815,0,83.9186-28.2397,93.1386-83.4631C1596.6747,30.876,1581.0504.0276,1534.6054.0276h-74.4778ZM1714.5333.0276c-39.7646,0-59.5436,14.1198-62.4834,36.2037-4.9275,36.7696,60.1371,58.6188,55.2372,80.6336-3.0365,12.8638-18.8402,12.2151-31.6765,12.2151h-41.7109l-5.1759,24.4164h51.8142c42.3871,0,60.7857-15.2102,64.1811-36.2037,6.1834-37.6667-59.9024-57.1143-54.7403-81.4893,1.6839-7.5085,10.0067-11.3594,28.4053-11.3594h36.176L1759.8739.0276h-45.3406ZM1777.2653.0276l-5.3138,24.4302h47.7149l-27.3839,129.0524h33.8021l27.3839-129.0524h47.7564L1906.3592.0276h-129.0939ZM1942.1902.0276l-87.9351,153.4688h33.8158l67.4109-123.0345,13.4987,98.6043h-48.4187l-13.2365,24.4302h99.2668L1982.6448,0h-40.4548l.0002.0276ZM2019.9805.0276l-5.3277,24.4302h47.7149l-27.3978,129.0524h33.8158l27.3839-129.0524h47.6873L2149.0327.0276h-129.0522ZM2171.5859.0276l-32.7807,153.4688h111.2887l5.1759-24.4302h-77.3211l8.792-41.9455h67.4246l4.8998-22.6635h-67.3833l8.5574-40.0131h77.2381L2282.6257.0138h-111.0402l.0004.0138ZM2357.0349.0276c-39.8198,0-59.5022,14.1198-62.5111,36.2037-4.9137,36.7696,60.137,58.6188,55.2372,80.6336-3.0226,12.8638-18.8679,12.2151-31.7041,12.2151h-41.7246l-5.1207,24.4164h51.759c42.3871,0,60.8134-15.2102,64.264-36.2037,6.1559-37.6667-59.9438-57.1143-54.837-81.4893,1.7253-7.5085,10.0896-11.3594,28.502-11.3594h36.0933L2402.4173.0276h-45.3824ZM1489.016,24.4578h34.506c28.0188,0,38.0256,20.7726,33.7606,45.1476-5.9764,34.4646-28.0188,59.4745-66.2929,59.4745h-24.1818l22.2081-104.6221ZM366.357,94.6568c-15.4173-.1104-26.2797.1104-27.522.0276H66.8312L0,409.4618s204.7033-100.4538,229.7408-113.3176c51.3035-26.3626,122.234-61.1722,187.7815-83.5045,12.4912-4.2235,66.003-20.7174,97.1688-26.2798,12.0771-2.1532,17.2116-4.2097,17.0598-6.4595-.4693-6.4595-12.6154-6.8874-33.1809-5.8798-62.7595,2.9537-182.9921,50.8342-217.6085,69.0948l-39.0746-121.1022h249.6439c8.4195-23.5469-78.9083-26.9699-125.1877-27.3287l.0138-.0276ZM498.7219,123.8351c-1.8081,0-3.3678,1.2146-5.4657,4.0717-1.9185,2.4568-3.4782,4.1269-8.4471,6.6251-7.7017,3.7957-27.867,5.9212-37.3079,6.708-9.0543.7591-11.5112,1.6839-11.663,5.1759-.0966,3.1331,1.3388,4.9137,14.3407,4.9137,29.896,0,83.7115-11.2766,99.9293-6.1145,8.5575,2.7329,1.6839,17.9845-5.3415,38.0394-2.7191,7.7293,2.6224,7.191,5.7142,3.7957,3.1055-3.423,17.0598-28.9712,18.578-41.9731,2.1531-18.4814-13.692-21.2557-35.555-21.2557h-34.782v.0138ZM941.0472,253.0945c-47.4803,0-87.0655,24.8167-98.6595,79.3914-9.1648,43.6432,17.391,79.5846,64.6642,79.5846,47.9495,0,86.4582-23.7263,98.4525-79.5846,9.8135-45.5617-17.3772-79.3913-64.4571-79.3913h-.0001ZM2295.697,253.0945c-47.0938,0-92.4208,24.375-104.0011,79.3914-11.7458,54.9887,23.1052,79.5846,70.2265,79.5846,13.0295,0,25.5206-1.4769,37.9014-3.3816l8.3367-26.3902c-12.1875,3.0365-25.079,5.3967-41.1311,5.3967-30.6137,0-47.8943-20.538-40.6342-55.2096,7.2738-34.6854,33.3605-55.0163,63.9327-55.0163,15.6656,0,26.335,2.1394,35.9691,4.9275l3.0226-25.8795c-10.8901-1.9185-22.2219-3.423-33.6227-3.423ZM1088.2085,255.855c-39.8337,0-59.5574,14.1199-62.5248,36.1899-4.9275,36.8248,60.1095,58.6326,55.251,80.6888-3.009,12.8362-18.8678,12.1875-31.7041,12.1875h-41.7247l-5.1759,24.3888h51.8417c42.3733,0,60.7581-15.1826,64.1811-36.1623,6.211-37.6529-59.9023-57.1419-54.7817-81.5307,1.7115-7.5085,10.0758-11.3456,28.5296-11.3456h36.0932l5.3829-24.4302h-45.3685v.0138ZM1150.9127,255.855l-5.3277,24.4164h47.7149l-27.3978,129.0524h33.8158l27.4391-129.0524h47.6873l5.0931-24.4302h-129.0248v.0138ZM1644.9004,255.855c-39.8475,0-59.5574,14.1199-62.5248,36.1899-4.9551,36.8248,60.0957,58.6326,55.2372,80.6888-3.009,12.8362-18.8678,12.1875-31.7041,12.1875h-41.7247l-5.1483,24.3888h51.8142c42.3458,0,60.7581-15.1826,64.1811-36.1623,6.211-37.6529-59.8885-57.1419-54.8369-81.5307,1.7253-7.5085,10.1172-11.3456,28.5296-11.3456h36.1485l5.3277-24.4302h-45.3132l.0137.0138ZM1719.5023,255.855l-32.7531,153.455h111.3163l5.1207-24.3888h-77.2658l8.7921-41.9731h67.4246l4.8998-22.7049h-67.3833l8.516-39.9717h77.2934l5.0792-24.4302h-111.0264l-.0136.0138ZM1855.1384,255.855l-32.5461,153.455h33.8158l27.3839-129.2594h30.3791c18.8264,0,20.5103,10.4622,18.6057,20.1101-3.6161,18.1777-19.4614,25.4516-36.7972,25.4516-3.216,0-8.5989.2208-12.8639-.4279l27.8533,84.1256h37.0042l-25.2584-66.1549c22.4841-3.1884,41.7797-19.2267,43.8639-48.1427,1.9599-25.6863-10.0205-39.1712-39.958-39.1712h-71.4963l.0139.0138ZM2356.6345,255.855l-32.684,153.455h111.2887l5.1207-24.3888h-77.2381l8.7644-41.9731h67.4246l4.8998-22.7049h-67.3833l8.5574-39.9717h77.2381l5.1207-24.4302h-111.1093l.0002.0138ZM726.0198,255.8688l-32.5461,153.4412h33.8297l27.3978-129.0524h27.5772c12.4498,0,20.9658,6.1973,17.3634,22.8982-1.9047,9.1924-10.2828,25.0375-33.4018,25.0375-5.1207,0-10.683-.6487-14.9342-1.0766l1.6977,22.2909c4.8998.4417,10.6969,1.2422,16.066,1.2422,30.3791,0,57.1281-17.529,63.353-46.6521,4.0441-19.2405.1932-48.1289-32.9739-48.1289h-73.4288ZM1316.0721,255.8688l-87.8936,153.4412h33.7606l67.4661-123.0621,13.4297,98.6733h-48.336l-13.2503,24.3888h99.2392l-23.9058-153.4412h-40.5101ZM1430.6596,255.8688l-32.5047,153.4412h103.8078l5.3415-24.3888h-69.9781l27.384-129.0524h-34.0505ZM1984.5497,255.8688l23.0915,153.4412h39.9856l87.3692-153.4412h-33.4018l-67.397,123.0897-15.8451-123.0897h-33.8158.0135ZM2155.3682,255.8688l-32.5046,153.4412h33.8158l32.5185-153.4412h-33.8297ZM935.706,277.4695c31.2486,0,41.7523,23.9472,35.1271,55.0163-7.329,34.6854-27.8532,55.2096-58.4393,55.2096-31.6903,0-42.1801-25.4654-35.5549-55.2096,7.9087-34.6716,28.2949-55.0163,58.8672-55.0163Z" style="fill:#15569c;"/><path id="c" d="M738.0416,199.0305l-2.3878,11.387h1741.8618l2.3464-11.387H738.0416Z" style="fill:#ed192d;"/></svg>